<?xml version="1.0" encoding="UTF-8" standalone="no"?>
<svg width="27px" height="28px" viewBox="0 0 27 28" version="1.1" xmlns="http://www.w3.org/2000/svg" xmlns:xlink="http://www.w3.org/1999/xlink" xmlns:sketch="http://www.bohemiancoding.com/sketch/ns">
    <!-- Generator: Sketch 3.1 (8751) - http://www.bohemiancoding.com/sketch -->
    <title>compass66</title>
    <desc>Created with Sketch.</desc>
    <defs></defs>
    <g id="Mobile" stroke="none" stroke-width="1" fill="none" fill-rule="evenodd" sketch:type="MSPage">
        <g id="Home-+-Menu" sketch:type="MSArtboardGroup" transform="translate(-19.000000, -202.000000)" fill="#FFFFFF">
            <g id="compass66" sketch:type="MSLayerGroup" transform="translate(19.000000, 202.958648)">
                <path d="M13.4210668,0 C6.03948006,0 0,6.03948006 0,13.4210668 C0,20.8026536 6.03948006,26.8421336 13.4210668,26.8421336 C20.8026536,26.8421336 26.8421336,20.8026536 26.8421336,13.4210668 C26.8421336,6.03948006 20.8026536,0 13.4210668,0 L13.4210668,0 Z M13.4210668,24.6052892 C7.26974452,24.6052892 2.23684447,19.5723891 2.23684447,13.4210668 C2.23684447,7.26974452 7.26974452,2.23684447 13.4210668,2.23684447 C19.5723891,2.23684447 24.6052892,7.26974452 24.6052892,13.4210668 C24.6052892,19.5723891 19.5723891,24.6052892 13.4210668,24.6052892 L13.4210668,24.6052892 Z M6.71053341,20.1316002 L15.5460691,15.5460691 L20.1316002,6.71053341 L11.2960646,11.2960646 L6.71053341,20.1316002 L6.71053341,20.1316002 Z M13.4210668,12.1908024 C14.0921202,12.1908024 14.6513313,12.7500135 14.6513313,13.4210668 C14.6513313,14.0921202 14.0921202,14.6513313 13.4210668,14.6513313 C12.7500135,14.6513313 12.1908024,14.0921202 12.1908024,13.4210668 C12.1908024,12.7500135 12.7500135,12.1908024 13.4210668,12.1908024 L13.4210668,12.1908024 Z" id="Shape" sketch:type="MSShapeGroup"></path>
            </g>
        </g>
    </g>
</svg>