<?xml version="1.0" encoding="UTF-8" standalone="no"?>
<svg width="28px" height="22px" viewBox="0 0 28 22" version="1.1" xmlns="http://www.w3.org/2000/svg" xmlns:xlink="http://www.w3.org/1999/xlink" xmlns:sketch="http://www.bohemiancoding.com/sketch/ns">
    <!-- Generator: Sketch 3.1 (8751) - http://www.bohemiancoding.com/sketch -->
    <title>comment7</title>
    <desc>Created with Sketch.</desc>
    <defs></defs>
    <g id="Mobile" stroke="none" stroke-width="1" fill="none" fill-rule="evenodd" sketch:type="MSPage">
        <g id="Home-+-Menu" sketch:type="MSArtboardGroup" transform="translate(-19.000000, -261.000000)" fill="#FFFFFF">
            <g id="comment7" sketch:type="MSLayerGroup" transform="translate(19.000000, 261.909752)">
                <path d="M0.147786355,21.1452659 L0.147786355,7.63638647 C0.147786355,3.45866403 3.55278869,0.0591447852 7.7372494,0.0591447852 L20.2094949,0.0591447852 C24.3948673,0.0591447852 27.8007812,3.45866403 27.8007812,7.63638647 L27.8007812,9.96644518 C27.8007812,14.1441676 24.3957789,17.5436869 20.2113182,17.5436869 L7.91319731,17.5436869 L0.147786355,21.1452659 L0.147786355,21.1452659 Z M7.7372494,1.74843735 C4.48540379,1.74843735 1.83980358,4.38977733 1.83980358,7.63638647 L1.83980358,18.4975546 L7.5403336,15.8534841 L20.2113182,15.8534841 C23.4631638,15.8534841 26.108764,13.2121441 26.108764,9.965535 L26.108764,7.63547629 C26.108764,4.38886715 23.4622522,1.74752717 20.2094949,1.74752717 L7.7372494,1.74752717 L7.7372494,1.74843735 Z M8.29517749,7.50805121 C9.18403353,7.50805121 9.90423482,8.22709276 9.90423482,9.11451746 C9.90423482,10.0019422 9.18403353,10.7209837 8.29517749,10.7209837 C7.40632146,10.7209837 6.68612016,10.0019422 6.68612016,9.11451746 C6.68612016,8.22709276 7.40632146,7.50805121 8.29517749,7.50805121 L8.29517749,7.50805121 Z M19.6524785,7.50805121 C20.5413345,7.50805121 21.2615358,8.22709276 21.2615358,9.11451746 C21.2615358,10.0019422 20.5413345,10.7209837 19.6524785,10.7209837 C18.7636224,10.7209837 18.0434211,10.0019422 18.0434211,9.11451746 C18.0434211,8.22709276 18.7636224,7.50805121 19.6524785,7.50805121 L19.6524785,7.50805121 Z M13.9729163,7.50805121 C14.8617724,7.50805121 15.5819737,8.22709276 15.5819737,9.11451746 C15.5819737,10.0019422 14.8617724,10.7209837 13.9729163,10.7209837 C13.0840603,10.7209837 12.363859,10.0019422 12.363859,9.11451746 C12.363859,8.22709276 13.0840603,7.50805121 13.9729163,7.50805121 L13.9729163,7.50805121 Z" id="Shape" sketch:type="MSShapeGroup"></path>
            </g>
        </g>
    </g>
</svg>