<?xml version="1.0" encoding="UTF-8" standalone="no"?>
<svg width="27px" height="28px" viewBox="0 0 27 28" version="1.1" xmlns="http://www.w3.org/2000/svg" xmlns:xlink="http://www.w3.org/1999/xlink" xmlns:sketch="http://www.bohemiancoding.com/sketch/ns">
    <!-- Generator: Sketch 3.1 (8751) - http://www.bohemiancoding.com/sketch -->
    <title>user58</title>
    <desc>Created with Sketch.</desc>
    <defs></defs>
    <g id="Mobile" stroke="none" stroke-width="1" fill="none" fill-rule="evenodd" sketch:type="MSPage">
        <g id="Home-+-Menu" sketch:type="MSArtboardGroup" transform="translate(-19.000000, -314.000000)" fill="#FFFFFF">
            <g id="user58" sketch:type="MSLayerGroup" transform="translate(20.116514, 314.199219)">
                <path d="M12.6937936,16.1802474 C8.88938654,16.1802474 5.80707754,12.4851192 5.80707754,7.93022287 C5.80707754,3.37586223 8.88938654,1.77635684e-15 12.6937936,1.77635684e-15 C16.4987364,1.77635684e-15 19.5837238,3.37586223 19.5837238,7.93022287 C19.5837238,12.4851192 16.4987364,16.1802474 12.6937936,16.1802474 L12.6937936,16.1802474 Z M1.98124319,27.3331277 C1.98124319,27.3331277 0.520440852,27.4295503 -0.122912138,26.5429981 C-0.470569166,26.0640992 -0.228441313,25.093445 0.00940109147,24.5518714 L0.591686437,23.2249894 C0.591686437,23.2249894 2.2019438,19.6236054 4.03504449,17.5365919 C5.16104614,16.2568497 6.50024887,16.5482603 7.36644519,16.9644845 C7.89998356,17.22054 8.50316047,17.9667438 8.94402601,18.3620764 C9.55148836,18.9068641 10.6239219,19.5261114 12.3772061,19.5609307 L13.4528537,19.5609307 C15.2050666,19.5261114 16.2775001,18.9068641 16.8844268,18.3620764 C17.3247567,17.9667438 17.9113275,17.1975057 18.4400447,16.9328793 C19.2349954,16.5348682 20.445099,16.290062 21.5416382,17.5365919 C23.3752746,19.6236054 24.827506,23.2903425 24.827506,23.2903425 L25.4242548,24.5915118 C25.6712038,25.1293357 25.9240452,26.0951687 25.5860305,26.5804957 C24.9828535,27.4482991 23.6286518,27.3331277 23.6286518,27.3331277 L1.98124319,27.3331277 L1.98124319,27.3331277 Z" id="Shape" sketch:type="MSShapeGroup"></path>
            </g>
        </g>
    </g>
</svg>